<?xml version="1.0" encoding="iso-8859-1"?>
<!-- Generator: Adobe Illustrator 19.0.0, SVG Export Plug-In . SVG Version: 6.00 Build 0)  -->
<svg xmlns="http://www.w3.org/2000/svg" xmlns:xlink="http://www.w3.org/1999/xlink" version="1.1" id="Layer_1" x="0px" y="0px" viewBox="0 0 505.076 505.076" style="enable-background:new 0 0 505.076 505.076;" xml:space="preserve" width="512" height="512">
<g>
	<g>
		<polyline style="fill:#FF8431;" points="53.355,423.31 53.355,479.898 451.717,479.898 451.717,423.31 451.717,382.562     451.717,202.086 53.355,202.086 53.355,255.815 53.355,382.562   "/>
		<path style="fill:#FFE67F;" d="M25.554,152.54c43.038-34.991,88.523-68.436,136.366-100.065    c54.992-36.356,126.245-36.356,181.236,0c47.842,31.629,93.328,65.074,136.366,100.065c35.569,28.918,15.076,86.5-30.765,86.5    H56.319C10.478,239.04-10.015,181.459,25.554,152.54z"/>
		<path style="fill:#FFBD48;" d="M252.534,25.213c-15.32,0-30.64,9.09-43.99,27.26c-23.22,31.63-45.3,65.08-66.19,100.07    c-17.27,28.92-7.32,86.5,14.93,86.5H56.314c-45.84,0-66.33-57.58-30.76-86.5c43.03-34.99,88.52-68.44,136.36-100.07    C189.414,34.303,220.974,25.213,252.534,25.213z"/>
		<polyline style="fill:#31333F;" points="53.355,395.51 53.355,285.621 119.111,285.621 119.111,395.51   "/>
		<polyline style="fill:#31333F;" points="385.961,395.51 385.961,285.621 451.717,285.621 451.717,395.51   "/>
		<path style="fill:#FFBD48;" d="M140.697,413.173c0,4.87-1.98,9.29-5.17,12.49c-3.2,3.19-7.62,5.17-12.49,5.17h-70.65    c-9.76,0-17.66-7.91-17.66-17.66c0-4.87,1.98-9.29,5.17-12.49c3.19-3.19,7.61-5.17,12.49-5.17h70.65    C132.787,395.513,140.697,403.423,140.697,413.173z"/>
		<path style="fill:#FFE67F;" d="M140.697,413.173c0,4.87-1.98,9.29-5.17,12.49c-3.2,3.19-7.62,5.17-12.49,5.17h-31.56    c-9.75,0-17.66-7.91-17.66-17.66c0-4.87,1.98-9.29,5.17-12.49c3.2-3.19,7.62-5.17,12.49-5.17h31.56    C132.787,395.513,140.697,403.423,140.697,413.173z"/>
		<path style="fill:#FFBD48;" d="M470.347,413.173c0,9.75-7.91,17.66-17.66,17.66h-70.65c-4.87,0-9.29-1.98-12.49-5.17    c-3.19-3.2-5.17-7.62-5.17-12.49c0-9.75,7.91-17.66,17.66-17.66h70.65c4.88,0,9.29,1.98,12.49,5.17    C468.367,403.883,470.347,408.303,470.347,413.173z"/>
		<path style="fill:#FFE67F;" d="M470.347,413.173c0,9.75-7.91,17.66-17.66,17.66h-53.14c-4.88,0-9.29-1.98-12.49-5.17    c-3.19-3.2-5.17-7.62-5.17-12.49c0-9.75,7.91-17.66,17.66-17.66h53.14c4.88,0,9.29,1.98,12.49,5.17    C468.367,403.883,470.347,408.303,470.347,413.173z"/>
		<rect x="181.89" y="285.621" style="fill:#31333F;" width="141.292" height="194.277"/>
	</g>
	<path d="M484.254,146.721c-24.814-20.174-50.643-39.983-76.771-58.875c-3.356-2.427-8.046-1.674-10.472,1.683   c-2.427,3.356-1.673,8.045,1.683,10.472c25.899,18.728,51.502,38.362,76.097,58.359c16.628,13.52,17.524,32.493,12.818,45.742   c-4.712,13.265-17.393,27.438-38.852,27.438H56.319c-21.459,0-34.14-14.174-38.852-27.438c-4.706-13.249-3.81-32.223,12.818-45.742   c43.103-35.044,88.782-68.563,135.771-99.627c52.536-34.732,120.428-34.733,172.964,0c12.158,8.038,24.365,16.331,36.281,24.649   c3.396,2.371,8.072,1.54,10.443-1.857c2.371-3.397,1.54-8.072-1.857-10.443c-12.02-8.39-24.333-16.755-36.595-24.862   c-57.562-38.055-131.949-38.054-189.509,0c-47.397,31.334-93.478,65.148-136.961,100.501   c-18.692,15.197-25.557,39.691-17.49,62.402c6.878,19.363,22.993,32.882,42.522,36.465v143.289   c-10.717,2.884-18.631,12.682-18.631,24.297s7.914,21.413,18.631,24.297v42.428c0,4.142,3.358,7.5,7.5,7.5h398.362   c4.142,0,7.5-3.358,7.5-7.5V437.47c10.717-2.884,18.631-12.682,18.631-24.297s-7.914-21.413-18.631-24.297V245.588   c19.531-3.581,35.648-17.101,42.526-36.465C509.811,186.412,502.946,161.918,484.254,146.721z M111.612,388.012H60.855v-94.89   h50.756V388.012z M42.224,413.173c0-5.603,4.559-10.162,10.162-10.162h70.646c5.603,0,10.162,4.559,10.162,10.162   s-4.559,10.162-10.162,10.162H52.386C46.782,423.335,42.224,418.776,42.224,413.173z M330.682,472.398V285.621   c0-4.142-3.358-7.5-7.5-7.5H181.89c-4.142,0-7.5,3.358-7.5,7.5v132.79c0,4.142,3.358,7.5,7.5,7.5s7.5-3.358,7.5-7.5v-125.29   h126.292v179.277H189.39v-23.985c0-4.142-3.358-7.5-7.5-7.5s-7.5,3.358-7.5,7.5v23.985H60.855v-34.063h62.176   c13.874,0,25.162-11.288,25.162-25.162c0-12.658-9.398-23.159-21.582-24.903V285.621c0-4.142-3.358-7.5-7.5-7.5H60.855V246.54   h383.362v31.582h-58.256c-4.142,0-7.5,3.358-7.5,7.5v102.649c-12.184,1.744-21.582,12.244-21.582,24.903   c0,13.874,11.288,25.162,25.162,25.162h62.176v34.063H330.682z M393.461,388.012v-94.89h50.756v94.89H393.461z M462.848,413.173   c0,5.603-4.559,10.162-10.162,10.162h-70.646c-5.603,0-10.162-4.559-10.162-10.162s4.559-10.162,10.162-10.162h70.646   C458.29,403.012,462.848,407.57,462.848,413.173z"/>
</g>















</svg>
